<?xml version="1.0" encoding="utf-8"?>
<!-- Generator: Adobe Illustrator 19.0.0, SVG Export Plug-In . SVG Version: 6.00 Build 0)  -->
<svg version="1.1" id="レイヤー_1" xmlns="http://www.w3.org/2000/svg" xmlns:xlink="http://www.w3.org/1999/xlink" x="0px"
	 y="0px" viewBox="0 0 634 74" style="enable-background:new 0 0 634 74;" xml:space="preserve">
<g id="XMLID_2_">
	<path id="XMLID_3_" d="M35.3,26.4h10.5v5.8H35.3V62h-6.6V32.2H18.4v-5.8h10.3v-3c0-4.2,1.1-7.5,3.3-9.8c2.2-2.3,5.3-3.5,9.3-3.5H46
		V16h-3.7c-4.6,0-7,2.3-7,6.9V26.4z"/>
	<path id="XMLID_5_" d="M88.8,26.4V62h-6.6v-4.1c-3.2,3.1-7.4,4.7-12.5,4.7c-3.7,0-6.7-1.1-8.9-3.3c-2.2-2.2-3.4-5.2-3.4-8.9v-24
		h6.6v24c0,4.2,2.4,6.4,7.1,6.4c3.3,0,6-1.1,8.2-3.2c1.9-1.9,2.9-4.7,2.9-8.3V26.4H88.8z"/>
	<path id="XMLID_7_" d="M102.3,26.4h6.6v4.1c2.6-3.1,5.9-4.7,9.7-4.7c3.1,0,5.7,1,7.7,3c2,2,3,4.6,3,7.7c0,0.2,0,0.7-0.1,1.3h-6.9
		c0-0.4,0-0.7,0-1c0-1.7-0.4-3.1-1.3-4.1c-0.9-1.1-2-1.6-3.5-1.6c-2.6,0-4.8,1.2-6.6,3.6c-1.3,1.8-2,4.4-2,8.1V62h-6.6V26.4z"/>
	<path id="XMLID_9_" d="M138.8,26.4h6.6v4.1c3.1-3.1,7-4.7,11.6-4.7c4,0,7.2,1.2,9.6,3.6c2.4,2.4,3.6,5.5,3.6,9.5V62h-6.6V38.3
		c0-2.1-0.6-3.7-1.9-4.9c-1.3-1.2-3.1-1.8-5.5-1.8c-3.2,0-5.9,1-7.9,3c-2,2-3,4.7-3,8V62h-6.6V26.4z"/>
	<path id="XMLID_11_" d="M182.9,26.4h18.5V62h-7V33.1h-11.4V26.4z M191.4,10.2h10v8.9h-10V10.2z"/>
	<path id="XMLID_14_" d="M235.7,15.8V26H249v5.8h-13.4v18.6c0,2,0.5,3.6,1.4,4.7c0.9,1.1,2.2,1.7,3.8,1.7c1.2,0,2.6-0.3,4.2-0.8
		c1.6-0.5,2.9-1.2,4-2v6.6c-2.1,1.4-4.9,2.1-8.3,2.1c-3.8,0-6.7-1.1-8.7-3.3c-2-2.2-3-5.4-3-9.6V31.8h-7.4V26h7.4v-8.4L235.7,15.8z"
		/>
	<path id="XMLID_16_" d="M292.1,26.4V62h-6.6v-4.1c-3.2,3.1-7.4,4.7-12.5,4.7c-3.7,0-6.7-1.1-8.9-3.3c-2.2-2.2-3.4-5.2-3.4-8.9v-24
		h6.6v24c0,4.2,2.4,6.4,7.1,6.4c3.3,0,6-1.1,8.2-3.2c1.9-1.9,2.9-4.7,2.9-8.3V26.4H292.1z"/>
	<path id="XMLID_18_" d="M305.5,26.4h6.6v4.1c2.6-3.1,5.9-4.7,9.7-4.7c3.1,0,5.7,1,7.7,3c2,2,3,4.6,3,7.7c0,0.2,0,0.7-0.1,1.3h-6.9
		c0-0.4,0-0.7,0-1c0-1.7-0.4-3.1-1.3-4.1c-0.9-1.1-2-1.6-3.5-1.6c-2.6,0-4.8,1.2-6.6,3.6c-1.3,1.8-2,4.4-2,8.1V62h-6.6V26.4z"/>
	<path id="XMLID_20_" d="M373.7,45.7h-24.6l0,1.2c0,2.9,1,5.3,3,7.1s4.5,2.8,7.6,2.8c2.6,0,4.5-0.8,5.5-2.5h7.3
		c-0.2,2.7-1.5,4.7-3.8,6.2c-2.3,1.4-5.5,2.1-9.5,2.1c-5.4,0-9.7-1.6-12.7-4.9c-3-3.2-4.5-7.8-4.5-13.6c0-4.9,1.3-9.1,3.9-12.7
		c2.8-3.7,6.9-5.6,12.5-5.6c5.1,0,9,1.5,11.6,4.5s4,7.4,4,13.2C373.8,44,373.8,44.7,373.7,45.7z M366.7,39.9c0-2.4-0.8-4.4-2.3-5.9
		c-1.6-1.5-3.6-2.3-6.1-2.3c-2.5,0-4.6,0.7-6.3,2.2c-1.7,1.5-2.6,3.5-2.9,6H366.7z"/>
	<path id="XMLID_23_" d="M390.2,39.8h16.5v8.2h-16.5V39.8z"/>
	<path id="XMLID_25_" d="M452.6,35.4h-6.9c-0.3-2.8-2.4-4.1-6.4-4.1c-4.8,0-7.1,1.5-7.1,4.4c0,2.5,1.7,4.1,5,4.7
		c6.5,1.3,10.6,2.4,12.4,3.4c3.2,1.9,4.8,4.6,4.8,8.3c0,3.3-1.4,5.9-4.2,7.8c-2.8,1.8-6.8,2.8-11.9,2.8c-4.5,0-8-0.8-10.4-2.5
		c-2.5-1.7-3.7-4.1-3.7-7.2h7c0.2,1.7,1,3,2.2,3.7c1.2,0.7,3.1,1.1,5.8,1.1c2.5,0,4.6-0.5,6.1-1.4c1.6-1,2.4-2.2,2.4-3.7
		s-0.4-2.6-1.3-3.3c-0.9-0.7-2.5-1.3-5-1.7c-6.1-1.1-10.2-2.5-12.5-4.1s-3.4-4-3.4-7.3c0-6.8,5.1-10.3,15.2-10.3
		c3.9,0,6.9,0.7,9,2.2s3.2,3.6,3.2,6.2C452.7,34.5,452.7,34.9,452.6,35.4z"/>
	<path id="XMLID_27_" d="M479.6,15.8V26H493v5.8h-13.4v18.6c0,2,0.5,3.6,1.4,4.7c0.9,1.1,2.2,1.7,3.8,1.7c1.2,0,2.6-0.3,4.2-0.8
		c1.6-0.5,2.9-1.2,4-2v6.6c-2.1,1.4-4.9,2.1-8.3,2.1c-3.8,0-6.7-1.1-8.7-3.3c-2-2.2-3-5.4-3-9.6V31.8h-7.4V26h7.4v-8.4L479.6,15.8z"
		/>
	<path id="XMLID_29_" d="M520.3,25.8c5.7,0,10,1.7,13,5.1c1.3,1.6,2.4,3.6,3.3,6c0.8,2.4,1.3,4.8,1.3,7.2c0,5.4-1.6,9.8-4.9,13.3
		c-3.3,3.5-7.4,5.2-12.5,5.2c-5.2,0-9.4-1.7-12.6-5.1c-3.2-3.4-4.8-7.9-4.8-13.4c0-5.5,1.6-9.9,4.7-13.3
		C511,27.5,515.1,25.8,520.3,25.8z M520.7,31c-3.4,0-6,1.2-8,3.6c-2,2.4-2.9,5.6-2.9,9.6c0,4.1,1,7.3,2.9,9.7
		c1.9,2.4,4.5,3.6,7.8,3.6c3.2,0,5.8-1.2,7.7-3.5c1.9-2.3,2.9-5.5,2.9-9.5c0-4.2-0.9-7.5-2.7-9.9C526.5,32.2,524,31,520.7,31z"/>
	<path id="XMLID_32_" d="M549.5,26.4h6.6v4.1c2.6-3.1,5.9-4.7,9.7-4.7c3.1,0,5.7,1,7.7,3c2,2,3,4.6,3,7.7c0,0.2,0,0.7-0.1,1.3h-6.9
		c0-0.4,0-0.7,0-1c0-1.7-0.4-3.1-1.3-4.1c-0.9-1.1-2-1.6-3.5-1.6c-2.6,0-4.8,1.2-6.6,3.6c-1.3,1.8-2,4.4-2,8.1V62h-6.6V26.4z"/>
	<path id="XMLID_34_" d="M617.6,45.7H593l0,1.2c0,2.9,1,5.3,3,7.1s4.5,2.8,7.6,2.8c2.6,0,4.5-0.8,5.5-2.5h7.3
		c-0.2,2.7-1.5,4.7-3.8,6.2c-2.3,1.4-5.5,2.1-9.5,2.1c-5.4,0-9.7-1.6-12.7-4.9c-3-3.2-4.5-7.8-4.5-13.6c0-4.9,1.3-9.1,3.9-12.7
		c2.8-3.7,6.9-5.6,12.5-5.6c5.1,0,9,1.5,11.6,4.5s4,7.4,4,13.2C617.7,44,617.7,44.7,617.6,45.7z M610.6,39.9c0-2.4-0.8-4.4-2.3-5.9
		c-1.6-1.5-3.6-2.3-6.1-2.3c-2.5,0-4.6,0.7-6.3,2.2c-1.7,1.5-2.6,3.5-2.9,6H610.6z"/>
</g>
</svg>
